<svg width="124" height="25" viewBox="0 0 124 25" fill="none" xmlns="http://www.w3.org/2000/svg">
<g clip-path="url(#clip0_25_34)">
<path d="M78.6751 6.74172C80.422 6.74172 81.9821 7.11921 83.349 7.87417C84.7424 8.62914 85.8292 9.70199 86.6093 11.0795C87.3961 12.457 87.7894 14.053 87.7894 15.8543C87.7894 17.6556 87.3961 19.2583 86.6093 20.6623C85.8226 22.0397 84.7358 23.1126 83.349 23.8675C81.9821 24.6225 80.422 25 78.6751 25C77.4416 25 76.3082 24.7881 75.2747 24.3642C74.268 23.9404 73.4145 23.3046 72.7211 22.4636V24.7682H68.7207V0H72.9278V9.11258C73.6479 8.33113 74.488 7.74172 75.4481 7.34437C76.4349 6.9404 77.5083 6.74172 78.6751 6.74172ZM78.2017 21.4305C79.7486 21.4305 81.0154 20.9205 82.0021 19.894C83.0089 18.8675 83.5156 17.5232 83.5156 15.8543C83.5156 14.1854 83.0089 12.8411 82.0021 11.8146C81.0154 10.7881 79.7486 10.2781 78.2017 10.2781C77.195 10.2781 76.2815 10.5099 75.4748 10.9801C74.668 11.4238 74.0279 12.0728 73.5546 12.9139C73.0812 13.7616 72.8478 14.7417 72.8478 15.8543C72.8478 16.9669 73.0812 17.947 73.5546 18.7947C74.0279 19.6424 74.668 20.298 75.4748 20.7616C76.2882 21.2053 77.195 21.4305 78.2017 21.4305Z" fill="white"/>
<path d="M108.665 15.9536C108.665 16.245 108.645 16.6556 108.598 17.1854H94.5035C94.7502 18.4967 95.3903 19.543 96.4237 20.3245C97.4772 21.0794 98.7773 21.4569 100.324 21.4569C102.298 21.4569 103.925 20.8145 105.205 19.5232L107.458 22.0927C106.651 23.0463 105.631 23.7748 104.398 24.2649C103.164 24.7549 101.778 25 100.224 25C98.2506 25 96.5104 24.6092 95.0102 23.8344C93.5101 23.053 92.3433 21.9735 91.5098 20.596C90.7031 19.192 90.2964 17.6159 90.2964 15.8543C90.2964 14.1192 90.6898 12.5629 91.4765 11.1788C92.2833 9.77481 93.3967 8.68872 94.8102 7.90726C96.2237 7.12581 97.8172 6.7417 99.5841 6.7417C101.331 6.7417 102.891 7.13243 104.258 7.90726C105.651 8.66223 106.725 9.7417 107.485 11.1457C108.272 12.5298 108.665 14.1324 108.665 15.9536ZM99.5841 10.0794C98.2372 10.0794 97.0971 10.4768 96.1504 11.2781C95.2303 12.0596 94.6702 13.1059 94.4702 14.4172H104.665C104.485 13.1258 103.938 12.0794 103.018 11.2781C102.098 10.4768 100.951 10.0794 99.5841 10.0794Z" fill="white"/>
<path d="M123.5 23.8013C123.007 24.1986 122.4 24.5033 121.687 24.702C120.993 24.9006 120.253 25 119.466 25C117.493 25 115.966 24.49 114.892 23.4635C113.812 22.4371 113.279 20.947 113.279 18.9933V10.4106H110.319V7.07282H113.279V3.00659H117.486V7.07944H122.3V10.4172H117.486V18.894C117.486 19.7616 117.699 20.4304 118.126 20.894C118.553 21.3377 119.173 21.5629 119.98 21.5629C120.92 21.5629 121.707 21.3178 122.333 20.8278L123.5 23.8013Z" fill="white"/>
<path d="M8.44086 7.34439V11.351H18.2619V17.2914H8.44086V24.7682H0.5V1.40399H19.6421V7.34439H8.44086Z" fill="#FFDC26"/>
<path d="M41.7244 18.8278V24.7682H22.1489V1.40399H41.291V7.34439H29.9564V10.0795H39.9108V15.755H29.9498V18.8278H41.7244V18.8278Z" fill="#FFDC26"/>
<path d="M65.5738 18.6556V24.7682H43.9448V19.9272L54.706 7.50995H44.2782V1.40399H65.0338V6.24505L54.2659 18.6556H65.5738Z" fill="#FFDC26"/>
</g>
<defs>
<clipPath id="clip0_25_34">
<rect width="123" height="25" fill="white" transform="translate(0.5)"/>
</clipPath>
</defs>
</svg>
