<svg width="77" height="24" viewBox="0 0 77 24" fill="none" xmlns="http://www.w3.org/2000/svg">
<path d="M7.29996 4.9577L2.5 18.369H5.31996L6.676 14.4555H10.576L11.968 18.369H14.848L10.048 4.9577H7.29996ZM9.90404 12.2355H7.38404L8.42804 9.28318C8.50004 9.07721 8.57204 8.88268 8.63196 8.67671C8.70396 8.88268 8.764 9.08865 8.84796 9.29464L9.90404 12.2355Z" fill="white"/>
<path d="M19.6 12.2698C18.304 11.7778 18.16 11.549 18.16 11.1942C18.16 10.7479 18.556 10.4619 19.192 10.4619C19.96 10.4619 20.5479 10.7479 20.8359 10.9196L21.388 11.2514L22.12 9.123L21.796 8.91703C21.1599 8.51653 20.2 8.28766 19.228 8.28766C17.056 8.28766 15.484 9.59217 15.484 11.4002C15.484 13.0594 17.02 13.9405 18.316 14.3868C19.6 14.8446 19.708 15.1649 19.708 15.554C19.708 16.2863 18.8919 16.4009 18.4239 16.4009C17.68 16.4009 16.876 16.0918 16.42 15.8402L15.868 15.5311L15.1479 17.7053L15.496 17.8999C16.288 18.3463 17.332 18.5979 18.3879 18.5979C20.776 18.5979 22.3839 17.3163 22.3839 15.4166C22.3839 13.4828 20.788 12.6932 19.6 12.2698Z" fill="white"/>
<path d="M26.62 6.15918L23.932 6.93731V8.47067H22.492V10.6792H23.9441V15.062C23.9441 16.2862 24.208 17.156 24.7361 17.7396C25.252 18.2889 26.044 18.5864 26.944 18.5864C27.7601 18.5864 28.348 18.4262 28.6241 18.3346L28.9841 18.2088L28.8401 15.9888L28.2281 16.1719C28.036 16.2177 27.8321 16.2633 27.388 16.2633C27.064 16.2633 26.62 16.2633 26.62 15.0162V10.6792H29.0561V8.47067H26.632L26.62 6.15918Z" fill="white"/>
<path d="M35.5959 8.3792L35.104 8.322C34.96 8.2991 34.816 8.28766 34.6239 8.28766C33.772 8.28766 32.992 8.6195 32.3919 9.2031L32.368 8.47074H29.848L29.884 8.98569C29.932 9.74093 29.968 10.6221 29.968 11.7435V18.3805H32.692V13.1281C32.692 12.8763 32.7159 12.636 32.74 12.4529C32.944 11.4231 33.6159 10.7823 34.5159 10.7823C34.7319 10.7823 34.864 10.7823 34.9839 10.8052L35.5959 10.931V8.3792Z" fill="white"/>
<path d="M40.564 8.28766C37.528 8.28766 35.404 10.4275 35.404 13.5057C35.404 16.4924 37.456 18.5864 40.396 18.5864C42.892 18.5864 45.5679 16.9501 45.5679 13.3569C45.592 10.3703 43.528 8.28766 40.564 8.28766ZM42.832 13.4027C42.832 15.1307 41.848 16.3894 40.504 16.3894C39.16 16.3894 38.188 15.142 38.188 13.4485C38.188 12.35 38.692 10.4847 40.552 10.4847C42.352 10.4733 42.832 12.3843 42.832 13.4027Z" fill="white"/>
<path d="M54.52 6.02189C53.62 5.25522 52.276 4.86615 50.524 4.86615C49.3479 4.86615 48.2319 4.94625 47.212 5.11789L46.7919 5.18655V18.3804H49.4919V13.4713C49.768 13.4942 50.056 13.5056 50.332 13.5056C52.1559 13.5056 53.7039 12.9678 54.688 11.9952C55.456 11.2514 55.84 10.2444 55.84 8.9971C55.8279 7.79557 55.372 6.74282 54.52 6.02189ZM53.1279 9.0772C53.1279 10.9539 51.3999 11.2285 50.368 11.2285C50.02 11.2285 49.732 11.2171 49.48 11.1827V7.15477C49.7439 7.12044 50.1039 7.10899 50.56 7.10899C51.736 7.12044 53.1279 7.46373 53.1279 9.0772Z" fill="white"/>
<path d="M64.1201 15.7485V12.4072C64.1201 9.74093 62.668 8.28766 60.0521 8.28766C58.84 8.28766 57.5681 8.60806 56.68 9.13446L56.3441 9.34043L57.076 11.4002L57.6401 11.034C58.204 10.6678 59.02 10.4504 59.824 10.4504C60.364 10.439 60.7721 10.5648 61.036 10.8166C61.252 11.0226 61.3841 11.3315 61.432 11.7206C59.308 11.7778 57.7481 12.2699 56.8121 13.1624C56.152 13.7803 55.816 14.5813 55.816 15.5311C55.816 17.0417 56.968 18.5864 59.1881 18.5864C60.136 18.5864 61.0241 18.3002 61.72 17.7854L61.792 18.369H64.3721L64.288 17.8083C64.1561 17.2705 64.1201 16.5725 64.1201 15.7485ZM59.5841 16.4123C59.176 16.4123 58.5041 16.275 58.5041 15.3481C58.5041 14.9933 58.6121 14.7188 58.852 14.4898C59.176 14.1923 59.8721 13.849 61.4561 13.8146V14.8788C61.4561 14.9591 61.444 15.0962 61.408 15.245C61.2041 15.7829 60.616 16.4123 59.5841 16.4123Z" fill="white"/>
<path d="M71.608 8.47073L69.64 14.0435C69.592 14.1809 69.5439 14.3297 69.496 14.4669C69.448 14.3297 69.3999 14.1922 69.34 14.0665L67.192 8.47073H64.2159L67.936 17.362L67.948 17.3849C68.008 17.4992 68.0319 17.568 68.0319 17.5909C68.008 17.6367 67.972 17.7282 67.948 17.7854C67.624 18.4491 67.144 19.0556 66.6639 19.4218L66.652 19.4332C66.112 19.868 65.5479 20.0741 65.3319 20.1312L64.852 20.28L65.5479 22.5L65.992 22.4199C66.2679 22.3741 67.228 22.1567 68.332 21.2755C69.6519 20.1657 70.528 18.3805 71.68 15.4853L74.5 8.45929L71.608 8.47073Z" fill="white"/>
<path d="M12.4474 8.65385C14.1995 6.94882 17.1753 5.93038 20.4035 5.93038C21.6635 5.93038 22.8875 6.07915 24.0395 6.38811L24.1355 6.411L26.2113 5.81595L25.2753 5.4841C23.5113 4.8433 21.4715 4.5 19.3835 4.5C16.3473 4.5 13.5274 5.19803 11.4034 6.46822L11.1755 6.60552L12.0514 9.0429L12.4474 8.65385Z" fill="white"/>
</svg>
