<svg width="70" height="24" viewBox="0 0 70 24" fill="none" xmlns="http://www.w3.org/2000/svg">
<path d="M7.83124 10.4575C8.36336 10.5995 9.52403 10.9093 9.7262 10.0994C9.93266 9.27086 8.80458 9.02118 8.25365 8.89918C8.1917 8.88552 8.13699 8.87334 8.09236 8.8623L7.70294 10.4239C7.73972 10.4331 7.78289 10.4446 7.83124 10.4575Z" fill="white"/>
<path d="M7.22945 12.9734C7.86767 13.1421 9.26253 13.5105 9.48429 12.6194C9.71152 11.7082 8.35874 11.4047 7.69864 11.2565C7.62489 11.24 7.55977 11.2254 7.50647 11.2121L7.07697 12.934C7.12072 12.9448 7.17204 12.9583 7.22945 12.9734Z" fill="white"/>
<path fill-rule="evenodd" clip-rule="evenodd" d="M15.0429 12.8535C14.0907 16.6726 10.2226 18.9968 6.40311 18.0445C2.58516 17.0923 0.260929 13.224 1.21352 9.40514C2.16522 5.58563 6.0333 3.26118 9.85171 4.21333C13.671 5.16548 15.995 9.03425 15.0429 12.8535ZM11.2714 10.1133C11.4133 9.16478 10.6911 8.65483 9.7035 8.31467L10.0239 7.02968L9.24169 6.83476L8.9298 8.08586C8.72418 8.03463 8.51298 7.98628 8.30313 7.93839L8.61724 6.67903L7.83552 6.4841L7.51494 7.76863C7.34474 7.72987 7.17766 7.69155 7.01548 7.65123L7.01637 7.64722L5.93769 7.37788L5.72962 8.21329C5.72962 8.21329 6.30995 8.3463 6.29769 8.3545C6.61448 8.43359 6.67173 8.64322 6.66215 8.80949L6.29725 10.2733C6.31908 10.2789 6.34737 10.2869 6.37856 10.2994L6.352 10.2927C6.33388 10.2881 6.31508 10.2835 6.29591 10.2789L5.78441 12.3296C5.74565 12.4257 5.64741 12.5701 5.42597 12.5153C5.43377 12.5267 4.85744 12.3734 4.85744 12.3734L4.46913 13.2688L5.48701 13.5225C5.60061 13.551 5.71285 13.5803 5.82393 13.6092C5.89774 13.6284 5.97178 13.6478 6.04462 13.6664L5.72092 14.9661L6.5022 15.161L6.82277 13.8751C7.0362 13.9331 7.24338 13.9866 7.4461 14.0369L7.12664 15.3168L7.90882 15.5116L8.23251 14.2145C9.56628 14.4669 10.5692 14.3651 10.9914 13.1587C11.3316 12.1874 10.9744 11.6272 10.2727 11.2617C10.7838 11.144 11.1687 10.8078 11.2714 10.1133Z" fill="white"/>
<path fill-rule="evenodd" clip-rule="evenodd" d="M21.8911 8.31329C22.4693 8.31329 22.9687 8.41685 23.3885 8.62033C23.8101 8.82575 24.1581 9.10241 24.4373 9.45042C24.7126 9.80014 24.9175 10.2089 25.0499 10.6775C25.1813 11.1472 25.2472 11.6523 25.2472 12.193C25.2472 13.0235 25.0951 13.8081 24.7879 14.5477C24.4808 15.2885 24.0639 15.931 23.5337 16.479C23.0039 17.0264 22.3783 17.4579 21.657 17.7767C20.9368 18.0957 20.1537 18.2552 19.3129 18.2552C19.2042 18.2552 19.0131 18.252 18.7431 18.2465C18.473 18.2409 18.1628 18.2131 17.8152 18.1661C17.4654 18.1173 17.0957 18.0451 16.7051 17.9484C16.3148 17.8535 15.9441 17.7206 15.595 17.5517L18.7166 4.43545L21.5124 4.00214L20.3947 8.65664C20.6341 8.54875 20.8751 8.46522 21.1157 8.40445C21.3565 8.34447 21.6149 8.31329 21.8911 8.31329ZM19.546 16.0372C19.967 16.0372 20.3638 15.9336 20.7365 15.7303C21.1103 15.5267 21.4328 15.2517 21.7031 14.9093C21.9733 14.5654 22.1873 14.178 22.3432 13.7451C22.4991 13.3123 22.5779 12.8607 22.5779 12.3908C22.5779 11.8136 22.4816 11.3634 22.2892 11.0379C22.097 10.7138 21.7413 10.5507 21.2246 10.5507C21.0552 10.5507 20.8372 10.583 20.5667 10.6407C20.2954 10.7019 20.0525 10.8292 19.8349 11.0205L18.6449 15.9634C18.7166 15.9762 18.7801 15.9882 18.8342 15.9996C18.8872 16.0118 18.9458 16.0206 19.0042 16.0265C19.0658 16.0334 19.1365 16.037 19.2219 16.037L19.546 16.0372Z" fill="white"/>
<path d="M28.1468 18.0041H25.4764L27.7315 8.51453H30.4201L28.1468 18.0041Z" fill="white"/>
<path d="M29.4462 7.35828C29.0735 7.35828 28.7355 7.24734 28.4357 7.02501C28.1334 6.80401 27.9837 6.46383 27.9837 6.00536C27.9837 5.75318 28.0349 5.51658 28.1365 5.29336C28.2396 5.07058 28.3744 4.87878 28.5433 4.71571C28.7119 4.55397 28.9073 4.42475 29.1291 4.3274C29.3524 4.2316 29.5899 4.18372 29.8429 4.18372C30.2154 4.18372 30.5516 4.29465 30.8526 4.51699C31.1525 4.74043 31.3033 5.08061 31.3033 5.53663C31.3033 5.78971 31.2523 6.02718 31.1497 6.24997C31.048 6.47274 30.9131 6.66456 30.7444 6.82763C30.577 6.98958 30.3799 7.11835 30.1584 7.21481C29.935 7.31217 29.6984 7.35828 29.4462 7.35828Z" fill="white"/>
<path d="M35.5575 5.71686L32.7605 6.15016L30.9914 13.6192C30.8473 14.2327 30.7638 14.8153 30.7391 15.3695C30.7152 15.9225 30.8005 16.4133 30.9914 16.839C31.1851 17.2663 31.5085 17.6038 31.9661 17.8509C32.4243 18.0962 33.0675 18.2193 33.8972 18.2193C34.4741 18.2193 34.9734 18.1725 35.3951 18.0754C35.8161 17.9796 36.2069 17.8658 36.5678 17.7335L36.3686 15.6759C36.0919 15.7732 35.8186 15.8476 35.5488 15.9011C35.2775 15.9555 34.9967 15.9829 34.7087 15.9829C34.359 15.9829 34.0923 15.9341 33.906 15.8371C33.7189 15.7418 33.5899 15.607 33.5182 15.4321C33.446 15.2578 33.4155 15.0505 33.4286 14.8093C33.4402 14.5691 33.4817 14.3107 33.5547 14.034L34.3478 10.7146H37.3252L37.8661 8.51406H34.8706L35.5575 5.71686Z" fill="white"/>
<path d="M37.7485 14.2147C37.7485 13.3973 37.8808 12.6265 38.1453 11.905C38.4093 11.1828 38.7895 10.5511 39.283 10.0091C39.7746 9.46978 40.3737 9.04245 41.0788 8.7288C41.7805 8.41698 42.5662 8.25964 43.4321 8.25964C43.9742 8.25964 44.4583 8.31091 44.8843 8.41356C45.312 8.51713 45.6989 8.65107 46.049 8.81905L45.1279 10.9132C44.8874 10.8155 44.6377 10.7296 44.3795 10.6516C44.121 10.5721 43.8055 10.5337 43.4324 10.5337C42.5411 10.5337 41.8365 10.841 41.312 11.4534C40.7896 12.0662 40.5265 12.8912 40.5265 13.926C40.5265 14.5393 40.6588 15.0351 40.9244 15.4146C41.1886 15.794 41.6767 15.9827 42.3854 15.9827C42.7351 15.9827 43.0726 15.9462 43.3958 15.8748C43.7215 15.8026 44.0091 15.7117 44.2625 15.6044L44.4618 17.7511C44.1242 17.8821 43.7517 18.0003 43.343 18.104C42.9336 18.2039 42.4461 18.2559 41.881 18.2559C41.1349 18.2559 40.5034 18.1467 39.9867 17.9317C39.4699 17.7134 39.0428 17.4236 38.7064 17.0564C38.3682 16.6884 38.1255 16.2587 37.9752 15.7654C37.8251 15.2727 37.7485 14.755 37.7485 14.2147Z" fill="white"/>
<path fill-rule="evenodd" clip-rule="evenodd" d="M47.9507 17.9665C48.4204 18.1587 48.974 18.2559 49.6114 18.2559C50.4895 18.2559 51.263 18.0719 51.93 17.7052C52.5979 17.3384 53.154 16.8664 53.5986 16.2896C54.0442 15.7115 54.3817 15.061 54.6091 14.3416C54.8364 13.6187 54.9508 12.8961 54.9508 12.1754C54.9508 11.5986 54.8733 11.0713 54.7163 10.5972C54.5604 10.1214 54.3284 9.71082 54.0232 9.3611C53.7147 9.01308 53.3244 8.74109 52.8506 8.54922C52.3744 8.357 51.8237 8.25964 51.198 8.25964C50.3452 8.25964 49.586 8.44361 48.9258 8.80949C48.2651 9.17776 47.7039 9.65005 47.249 10.2277C46.7905 10.8045 46.4441 11.4534 46.2107 12.1756C45.9761 12.8963 45.86 13.619 45.86 14.3419C45.86 14.9183 45.9357 15.4442 46.0932 15.9192C46.2507 16.3943 46.4806 16.8067 46.7879 17.1546C47.0946 17.5045 47.4826 17.7742 47.9507 17.9665ZM49.9006 10.8759C50.2002 10.6489 50.5501 10.534 50.9461 10.534C51.451 10.534 51.8004 10.7028 51.9928 11.0386C52.1855 11.3757 52.2822 11.8457 52.2822 12.4463C52.2822 12.8188 52.2308 13.2137 52.1299 13.628C52.0268 14.0431 51.8728 14.4256 51.6683 14.7736C51.4631 15.1225 51.2102 15.4115 50.9112 15.6393C50.6099 15.8688 50.2617 15.9829 49.8645 15.9829C49.359 15.9829 49.0112 15.814 48.8176 15.4783C48.6267 15.1408 48.5296 14.6719 48.5296 14.0696C48.5296 13.6965 48.5796 13.3037 48.6819 12.8882C48.785 12.4736 48.9377 12.0923 49.1435 11.7426C49.3471 11.3943 49.5998 11.1056 49.9006 10.8759Z" fill="white"/>
<path d="M57.8607 18.0041H55.1882L57.4433 8.51453H60.1333L57.8607 18.0041Z" fill="white"/>
<path d="M59.1582 7.35828C58.7857 7.35828 58.4479 7.24734 58.1485 7.02501C57.8478 6.80401 57.6967 6.46383 57.6967 6.00536C57.6967 5.75318 57.7487 5.51658 57.8505 5.29336C57.9523 5.07058 58.088 4.87878 58.2569 4.71571C58.4246 4.55397 58.6217 4.42475 58.8432 4.3274C59.0651 4.2316 59.3025 4.18372 59.5547 4.18372C59.9281 4.18372 60.2654 4.29465 60.5657 4.51699C60.8662 4.74043 61.018 5.08061 61.018 5.53663C61.018 5.78971 60.964 6.02718 60.8631 6.24997C60.7621 6.47274 60.6265 6.66456 60.4583 6.82763C60.2889 6.98958 60.0943 7.11835 59.8724 7.21481C59.6487 7.31217 59.4117 7.35828 59.1582 7.35828Z" fill="white"/>
<path d="M62.7322 8.73825C62.4864 8.81563 62.2603 8.88688 62.0579 8.94605L59.8735 18.003H62.5626L64.313 10.6605C64.6746 10.5884 65.0288 10.5509 65.377 10.5509C65.7381 10.5509 66.0043 10.6202 66.1806 10.758C66.3541 10.8983 66.466 11.0791 66.5133 11.3001C66.5631 11.5237 66.5656 11.7822 66.523 12.0753C66.4809 12.3712 66.4239 12.6739 66.3512 12.9872L65.1607 18.0033H67.8487L69.0771 12.8794C69.4247 11.4607 69.3319 10.3415 68.7964 9.52372C68.2603 8.70581 67.2896 8.29578 65.8811 8.29578C65.4019 8.29578 64.9707 8.31672 64.5922 8.35962C64.2137 8.40173 63.8694 8.45613 63.5644 8.52316C63.2561 8.58825 62.9792 8.66063 62.7322 8.73825Z" fill="white"/>
</svg>
