<svg width="81" height="24" viewBox="0 0 81 24" fill="none" xmlns="http://www.w3.org/2000/svg">
<path d="M16.2915 4C9.21546 4 3.5 7.44664 3.5 11.7225C3.5 13.5333 4.53798 15.1917 6.30561 16.532C5.46706 15.5253 4.99125 14.2524 4.95822 12.9274C4.95931 8.50715 10.5694 4.9161 17.4567 4.9161C21.8961 4.89353 25.8022 6.37147 28.045 8.62899C26.0327 5.90327 21.5165 4 16.2926 4H16.2915Z" fill="white"/>
<path d="M15.1535 13.8998C15.5957 13.9257 16.0357 13.8073 16.4087 13.5613C16.5867 13.4483 16.7319 13.2884 16.8293 13.0981C16.9268 12.9078 16.9729 12.6942 16.9628 12.4794C16.9548 11.5921 16.6559 10.7336 16.1147 10.0425C15.5706 9.29171 14.8451 8.70017 14.0102 8.3265C13.3641 8.06024 12.6731 7.92797 11.977 7.93727C11.2811 7.91021 10.5874 8.03269 9.94014 8.29688C9.29288 8.56107 8.70632 8.96117 8.21794 9.47162C7.74822 9.94719 7.37734 10.5159 7.12781 11.1433C6.87828 11.7707 6.75529 12.4436 6.7663 13.1213C6.75557 13.7991 6.88579 14.4715 7.14825 15.0933C7.41072 15.7152 7.79936 16.2722 8.28816 16.7271C9.32192 17.702 10.6871 18.2199 12.089 18.1689C12.8826 18.1731 13.6724 18.054 14.4315 17.8158C15.181 17.63 15.8581 17.215 16.3736 16.6255C16.5821 16.3886 16.7028 16.0862 16.7171 15.7681C16.7171 15.046 16.3111 14.65 15.4969 14.65C15.0118 14.7433 14.5405 14.9007 14.0947 15.1182C13.5022 15.4003 12.8614 15.5628 12.2075 15.5943C11.6501 15.6125 11.1004 15.4567 10.6307 15.1476C10.4192 15.0067 10.2421 14.8176 10.113 14.5949C9.98404 14.3723 9.90663 14.1221 9.88682 13.8637L15.1535 13.8998V13.8998ZM10.589 10.7781C10.9861 10.4528 11.4841 10.2861 11.9913 10.3087C12.4719 10.3042 12.9393 10.4757 13.3091 10.7927C13.4904 10.941 13.6396 11.1265 13.7472 11.3375C13.8547 11.5485 13.9181 11.7803 13.9334 12.018H9.88682C9.9724 11.5328 10.2215 11.094 10.589 10.7769V10.7781ZM18.6734 16.7124C19.1654 17.212 19.7528 17.6013 20.3985 17.8557C21.0442 18.1101 21.7341 18.224 22.4248 18.1903C23.2193 18.2156 24.0101 18.0684 24.7455 17.7582C25.609 17.3611 26.0369 16.8636 26.0369 16.3153C26.044 15.9888 25.9258 15.6727 25.7077 15.4353C25.5965 15.3139 25.4614 15.2183 25.3113 15.1551C25.1612 15.0919 24.9997 15.0624 24.8376 15.0686C24.5238 15.0855 24.2144 15.1589 23.9258 15.2841C23.5407 15.4251 23.1358 15.4962 22.7266 15.4939C22.4072 15.5104 22.0882 15.4542 21.7923 15.3294C21.4965 15.2046 21.231 15.0142 21.0149 14.7719C20.6403 14.2885 20.4507 13.681 20.4816 13.0638C20.4581 12.4573 20.6391 11.861 20.9941 11.376C21.19 11.1334 21.4389 10.9417 21.7205 10.8166C22.0021 10.6915 22.3085 10.6366 22.6147 10.6562C23.0261 10.6416 23.4376 10.7014 23.8271 10.8367C24.1266 10.9631 24.4437 11.0398 24.7674 11.0601C24.935 11.0655 25.1019 11.0364 25.2583 10.9744C25.4147 10.9123 25.5575 10.8188 25.6781 10.6991C25.7955 10.5902 25.8888 10.4568 25.9519 10.3077C26.0149 10.1586 26.0461 9.99742 26.0435 9.8349C26.0435 9.16362 25.6222 8.66609 24.7883 8.3344C24.0849 8.08501 23.3442 7.96546 22.6004 7.98127C21.8987 7.94658 21.1972 8.05624 20.5373 8.30382C19.8773 8.5514 19.272 8.93193 18.7568 9.42311C18.278 9.8986 17.9019 10.4725 17.6532 11.1073C17.4044 11.7422 17.2884 12.4238 17.3129 13.1078C17.2921 13.7726 17.4025 14.4348 17.6375 15.0545C17.8725 15.6742 18.2271 16.2386 18.68 16.7135H18.6734V16.7124ZM27.5368 16.7259C28.0351 17.2296 28.6279 17.6236 29.2791 17.8841C29.9302 18.1446 30.6262 18.266 31.3245 18.2411C32.021 18.269 32.7158 18.1511 33.3667 17.8945C34.0176 17.6379 34.6111 17.248 35.111 16.7485C35.5737 16.2704 35.9368 15.7002 36.1779 15.0728C36.419 14.4455 36.5331 13.7742 36.5132 13.0999C36.5353 12.421 36.4223 11.7446 36.1812 11.1122C35.94 10.4798 35.5759 9.90461 35.111 9.42198C34.6127 8.92938 34.0214 8.54724 33.3737 8.29922C32.7259 8.05121 32.0355 7.9426 31.3453 7.98014C30.6536 7.95404 29.964 8.07223 29.3179 8.3276C28.6718 8.58296 28.0828 8.9702 27.5862 9.46598C27.1123 9.94258 26.7389 10.5144 26.4891 11.1457C26.2394 11.7771 26.1187 12.4546 26.1346 13.136C26.1177 13.8033 26.2334 14.4671 26.4745 15.0869C26.7156 15.7066 27.0771 16.2693 27.5368 16.7406V16.7271V16.7259ZM29.7675 11.4268C29.952 11.1856 30.1873 10.9906 30.4558 10.8565C30.7243 10.7224 31.0189 10.6527 31.3173 10.6527C31.6158 10.6527 31.9104 10.7224 32.1788 10.8565C32.4473 10.9906 32.6826 11.1856 32.8672 11.4268C33.204 11.9006 33.3763 12.476 33.3576 13.0627C33.3807 13.6512 33.2158 14.2313 32.888 14.7144C32.7162 14.9761 32.4827 15.1889 32.2093 15.3327C31.9359 15.4766 31.6314 15.5468 31.3245 15.5368C31.0238 15.5492 30.725 15.4836 30.4554 15.3462C30.1859 15.2088 29.9542 15.004 29.7817 14.7505C29.444 14.2717 29.2711 13.691 29.2902 13.0999C29.2695 12.5084 29.4371 11.9261 29.7675 11.4415V11.4268V11.4268Z" fill="white"/>
<path d="M40.8538 7.69903H42.2572C43.7023 7.69903 44.4242 8.26088 44.4242 9.38569C44.4242 10.5331 43.722 11.1096 42.2572 11.1096H40.8549V7.69903H40.8538ZM40.8538 16.0138V13.7981H42.9583C44.2428 13.8815 45.5119 13.4732 46.521 12.6518C46.9592 12.2433 47.3031 11.7392 47.5275 11.1764C47.7519 10.6137 47.8511 10.0065 47.818 9.39923C47.8526 8.77641 47.7436 8.15398 47.4999 7.58268C47.2563 7.01137 46.8848 6.50734 46.4157 6.11166C45.3629 5.30948 44.0702 4.91153 42.7619 4.98685H39.8795C39.2745 4.92163 38.6669 5.08263 38.1678 5.44038C37.9872 5.66309 37.8519 5.92088 37.7701 6.19843C37.6883 6.47597 37.6616 6.7676 37.6916 7.05596V16.0048C37.6916 17.3959 38.2183 18.0954 39.2695 18.0954C40.3217 18.0954 40.8549 17.3745 40.8549 16.0116L40.8538 16.0138ZM51.6604 11.4841C51.8338 11.2484 52.0604 11.0595 52.3205 10.9337C52.5806 10.808 52.8666 10.7491 53.1538 10.7621C53.4415 10.7457 53.7288 10.8031 53.9896 10.9291C54.2505 11.0552 54.4768 11.2459 54.6482 11.4841C54.9642 11.9444 55.1244 12.4995 55.1035 13.0636C55.1246 13.6339 54.9648 14.1958 54.6482 14.6645C54.4767 14.9026 54.2503 15.0931 53.9895 15.2189C53.7286 15.3447 53.4414 15.402 53.1538 15.3854C52.8634 15.4003 52.5738 15.3423 52.31 15.2165C52.0463 15.0907 51.8162 14.9009 51.6396 14.6634C51.3223 14.1957 51.1642 13.6333 51.1897 13.0636C51.1747 12.4951 51.3481 11.9381 51.6813 11.4841H51.6593H51.6604ZM56.7022 18.0954C57.7193 18.0954 58.2241 17.3756 58.2241 15.9981V10.2296C58.2241 8.83739 57.7193 8.1458 56.7022 8.1458C56.4009 8.14313 56.1047 8.22584 55.8461 8.38486C55.5876 8.54387 55.3766 8.77304 55.2363 9.04723C54.9204 8.70164 54.5357 8.43006 54.1086 8.25096C53.6815 8.07185 53.2218 7.98943 52.761 8.00929C52.0974 7.98903 51.4379 8.12226 50.8312 8.39915C50.2244 8.67605 49.6859 9.08953 49.2553 9.60907C48.4079 10.5667 47.9442 11.8186 47.9573 13.1133C47.9376 14.388 48.38 15.6246 49.1983 16.5825C49.615 17.0969 50.1392 17.5081 50.732 17.7853C51.3247 18.0625 51.9706 18.1985 52.6216 18.1834C53.1036 18.2082 53.5851 18.1241 54.0321 17.937C54.4791 17.7498 54.8808 17.4642 55.2089 17.1003C55.3216 17.404 55.523 17.6643 55.7856 17.8453C56.0481 18.0263 56.3588 18.1192 56.6748 18.1112L56.7022 18.0965V18.0954ZM65.356 9.26384L63.4765 13.85L61.7242 9.52333C61.6056 9.1704 61.4326 8.83937 61.2118 8.54293C61.0739 8.40567 60.91 8.29901 60.7303 8.22953C60.5506 8.16006 60.359 8.12925 60.1672 8.13903C59.77 8.12623 59.3831 8.27082 59.0865 8.54293C58.9495 8.67181 58.8406 8.82899 58.7669 9.00417C58.6931 9.17934 58.6562 9.36856 58.6586 9.55943C58.6629 9.83133 58.7222 10.0998 58.8341 10.3458L61.9338 17.1161L60.6654 19.6974C60.5118 19.9986 60.4251 20.3315 60.413 20.671C60.405 20.86 60.4387 21.0483 60.5114 21.222C60.5842 21.3957 60.6942 21.5502 60.8333 21.674C61.1405 21.9369 61.5355 22.07 61.9338 22.0486C62.4813 22.0486 62.9301 21.6593 63.2878 20.8944L68.0212 10.4902C68.1704 10.1799 68.2538 9.84035 68.267 9.49512C68.267 8.57903 67.7623 8.12436 66.7451 8.12436C66.1636 8.12436 65.7137 8.50005 65.3911 9.26384H65.356V9.26384ZM75.7929 15.2918H72.7568L76.8385 10.3808C77.1776 10.0446 77.3981 9.60005 77.4617 9.11944C77.479 8.96048 77.4406 8.8004 77.3533 8.66803C77.266 8.53565 77.1356 8.43968 76.9855 8.39739C76.506 8.27774 76.0127 8.22687 75.5197 8.24621H70.6107C69.2995 8.24621 68.6466 8.67944 68.6466 9.54364C68.6466 10.4101 69.2918 10.8636 70.5887 10.8636H73.233L69.0252 15.962C68.7472 16.2601 68.5852 16.6526 68.5698 17.0653C68.5698 17.6633 69.1096 17.9589 70.1827 17.9589H75.7929C77.0832 17.9589 77.7284 17.5189 77.7284 16.6389C77.7284 15.7386 77.0898 15.2918 75.8137 15.2918H75.7918H75.7929Z" fill="white"/>
</svg>
