<svg width="27" height="24" viewBox="0 0 27 24" fill="none" xmlns="http://www.w3.org/2000/svg">
<path d="M13.3336 9.36139C13.2879 9.24641 13.2125 9.15949 13.0833 9.14386C12.8488 9.1155 12.647 9.18299 12.4928 9.36751C12.3866 9.49447 12.3298 9.6459 12.3012 9.80621C12.2781 9.93555 12.2678 10.0672 12.2505 10.2097C12.2849 10.2034 12.2948 10.2021 12.3044 10.1998C12.6197 10.1247 12.9351 10.0494 13.2504 9.97427C13.3961 9.93947 13.3984 9.93947 13.3952 9.78939C13.392 9.64453 13.3884 9.49884 13.3336 9.36139Z" fill="white"/>
<path d="M23.9976 5.28802C24.3471 5.28867 24.625 5.01327 24.6264 4.66487C24.6278 4.31403 24.3489 4.03017 24.0015 4.02887C23.6539 4.02758 23.3684 4.31091 23.3678 4.65783C23.3672 5.00753 23.6469 5.28737 23.9976 5.28802ZM23.7866 4.21852C23.8744 4.22131 23.9623 4.21894 24.0501 4.21924C24.1537 4.21958 24.2299 4.26754 24.2637 4.35298C24.2988 4.44171 24.2752 4.57377 24.213 4.63451C24.2 4.64711 24.1857 4.6583 24.1664 4.67499C24.2351 4.70879 24.2616 4.76044 24.2649 4.82657C24.2676 4.88157 24.2701 4.93663 24.2749 4.99146C24.2784 5.03086 24.2857 5.06994 24.2927 5.11898C24.254 5.11898 24.207 5.12644 24.1645 5.11558C24.1455 5.11072 24.1273 5.07031 24.1237 5.044C24.115 4.97948 24.1154 4.91376 24.1114 4.84857C24.1063 4.76738 24.0786 4.73925 23.9971 4.73811C23.8556 4.73611 23.8849 4.72976 23.8824 4.85017C23.8809 4.92365 23.881 4.99722 23.8824 5.0707C23.8832 5.10754 23.8683 5.11996 23.8318 5.12117C23.7288 5.12457 23.7288 5.12602 23.7288 5.02069C23.7288 4.8471 23.7288 4.67351 23.7288 4.49993C23.7288 4.42641 23.731 4.35281 23.728 4.27941C23.7263 4.23476 23.7402 4.21705 23.7866 4.21852Z" fill="white"/>
<path d="M23.883 4.44051C23.879 4.45135 23.8824 4.46481 23.8824 4.47708C23.8823 4.47708 23.8825 4.47708 23.8824 4.47708C23.8824 4.50978 23.8806 4.5427 23.8837 4.57508C23.885 4.58813 23.8955 4.60732 23.9063 4.6113C24.0364 4.65916 24.1423 4.57317 24.1214 4.43819C24.1092 4.35979 24.0493 4.32874 23.9276 4.33741C23.8471 4.34313 23.8957 4.40533 23.883 4.44051Z" fill="white"/>
<path d="M19.6431 9.06177C19.5295 9.13139 19.4302 9.19516 19.3281 9.254C19.1726 9.34364 19.0094 9.42121 18.8597 9.51961C18.6513 9.65675 18.5568 9.86228 18.5591 10.1102C18.5619 10.4192 18.7692 10.5751 19.0661 10.4914C19.3627 10.4078 19.5334 10.2006 19.6046 9.91082C19.6723 9.63584 19.6299 9.354 19.6431 9.06177Z" fill="white"/>
<path d="M23.3435 0H3.65651C2.47047 0 1.5 0.970429 1.5 2.15652V21.8435C1.5 23.0295 2.47047 24 3.65651 24H23.3435C24.5295 24 25.5 23.0295 25.5 21.8435V2.15652C25.5 0.970429 24.5295 0 23.3435 0ZM23.9993 3.92516C24.4015 3.92582 24.7304 4.25726 24.73 4.66125C24.7297 5.06644 24.4032 5.39122 23.9962 5.39112C23.5919 5.39102 23.2634 5.06234 23.2637 4.65817C23.2641 4.25759 23.5983 3.9245 23.9993 3.92516ZM4.71829 10.3672C5.06204 10.2875 5.40524 10.2053 5.74865 10.1245C5.76 10.1218 5.77254 10.1242 5.79305 10.1242C5.79305 10.27 5.79305 10.4107 5.79305 10.565C5.80778 10.547 5.81509 10.5399 5.82022 10.5314C6.11924 10.0416 6.55495 9.76495 7.1244 9.70358C7.22673 9.69257 7.33385 9.6934 7.43487 9.71111C7.76945 9.7698 7.94007 9.99927 8.01349 10.3102C8.0448 10.4422 8.06357 10.5804 8.06411 10.7159C8.06837 11.7381 8.0664 12.7604 8.06793 13.7827C8.06793 13.8283 8.05298 13.8472 8.00967 13.8572C7.65393 13.9388 7.29851 14.0222 6.94298 14.1049C6.92564 14.1089 6.90807 14.1118 6.88135 14.1169C6.88135 14.0818 6.88135 14.0537 6.88135 14.0257C6.88113 13.1117 6.88135 12.1979 6.87982 11.284C6.8796 11.2027 6.87425 11.1201 6.85898 11.0403C6.81087 10.7895 6.65596 10.6934 6.40756 10.7594C6.17193 10.822 6.03414 10.9907 5.9436 11.2052C5.88589 11.342 5.85753 11.486 5.85742 11.6347C5.85676 12.2767 5.85687 12.9187 5.85665 13.5607C5.85665 13.5861 5.85665 13.6115 5.85665 13.6546C5.4936 13.3657 5.10655 13.2937 4.674 13.4443C4.67062 13.4165 4.66527 13.3937 4.66527 13.3711C4.6644 12.3958 4.66418 11.4205 4.66287 10.4453C4.66287 10.4031 4.67149 10.378 4.71829 10.3672ZM2.36389 15.541C2.37742 15.5175 2.40611 15.4941 2.43185 15.4879C2.94316 15.3655 3.45513 15.2455 3.96698 15.1251C3.97854 15.1225 3.99033 15.1209 4.01193 15.1171C4.01356 15.1451 4.01574 15.1651 4.01574 15.185C4.01596 15.5487 4.01564 15.9123 4.01651 16.2759C4.01662 16.3166 4.0116 16.3435 3.96295 16.3543C3.66055 16.4212 3.36022 16.4981 3.05662 16.5588C2.70218 16.6295 2.33258 16.3536 2.27967 15.9946C2.25578 15.8324 2.28262 15.6816 2.36389 15.541ZM3.94865 19.4758C3.67036 19.5381 3.39284 19.6045 3.11455 19.667C2.67796 19.7649 2.26702 19.4368 2.27084 18.9924C2.27138 18.93 2.28556 18.8671 2.29942 18.8056C2.32833 18.6763 2.3976 18.6028 2.54051 18.5725C3.00884 18.473 3.47367 18.3565 3.93982 18.2468C3.9612 18.2417 3.98291 18.2385 4.0116 18.233C4.01334 18.2613 4.01574 18.2829 4.01574 18.3046C4.01607 18.6662 4.01487 19.0277 4.01716 19.3893C4.01749 19.4428 3.99938 19.4644 3.94865 19.4758ZM3.94538 17.9177C3.66862 17.9796 3.39284 18.0452 3.11629 18.1075C2.67917 18.206 2.26691 17.8778 2.27007 17.4335C2.27094 17.3129 2.3016 17.1986 2.36586 17.0959C2.3796 17.0739 2.40513 17.051 2.42924 17.0452C2.94513 16.922 3.46156 16.801 3.978 16.6797C3.98564 16.6779 3.99382 16.678 4.01225 16.6763C4.01367 16.704 4.01574 16.726 4.01585 16.748C4.01596 17.108 4.01465 17.4679 4.01738 17.8277C4.01771 17.8844 3.99775 17.9061 3.94538 17.9177ZM3.93229 14.8041C3.56454 14.8877 3.19767 14.9759 2.83047 15.0623C2.81138 15.0668 2.79164 15.0693 2.76458 15.074C2.76284 15.0433 2.76044 15.0196 2.76044 14.996C2.76022 12.7757 2.76044 10.5556 2.75869 8.33554C2.75869 8.27732 2.77571 8.25461 2.83244 8.24161C3.20422 8.15638 3.57502 8.06735 3.94626 7.97981C3.96567 7.97525 3.98563 7.97309 4.01585 7.96804C4.01585 8.00173 4.01585 8.02384 4.01585 8.04597C4.01585 10.264 4.01553 12.4822 4.0176 14.7002C4.01771 14.7684 3.99458 14.7899 3.93229 14.8041ZM8.57716 21.1636C8.57705 21.7239 8.57684 22.2842 8.57651 22.8446C8.5764 22.9352 8.57618 22.9353 8.48498 22.9353C7.78975 22.9358 7.0944 22.939 6.39916 22.936C5.44418 22.9319 4.6188 22.2872 4.38938 21.36C4.34618 21.1853 4.32458 21.0009 4.32426 20.8208C4.31935 18.7207 4.32022 16.6204 4.32033 14.5202C4.32033 14.1232 4.57069 13.814 4.95273 13.7343C5.37862 13.6455 5.81869 13.9697 5.85807 14.4024C5.86385 14.4653 5.86702 14.5288 5.86702 14.592C5.86833 15.7618 5.86865 16.9315 5.8704 18.1012C5.87051 18.1409 5.87542 18.1837 5.89069 18.2197C5.91622 18.2804 5.99226 18.3142 6.05389 18.3022C6.12709 18.288 6.17825 18.2321 6.18338 18.1591C6.18545 18.1306 6.1848 18.1019 6.18491 18.0732C6.18502 17.1346 6.18513 16.196 6.18524 15.2573C6.18524 15.2295 6.18524 15.2017 6.18524 15.174C6.19135 15.1713 6.19735 15.1684 6.20346 15.1657C6.31647 15.2424 6.4296 15.319 6.54251 15.3957C7.06004 15.7471 7.57625 16.1002 8.09531 16.4493C8.42247 16.6692 8.57913 16.9743 8.5788 17.3661C8.57749 18.632 8.5776 19.8977 8.57716 21.1636ZM10.8904 9.79458C10.6577 9.84764 10.4259 9.90447 10.1931 9.95673C10.1402 9.96862 10.1204 9.98978 10.1207 10.0464C10.1246 10.8297 10.1225 11.6129 10.1303 12.3961C10.1327 12.631 10.1686 12.8645 10.2574 13.0851C10.2859 13.156 10.328 13.2214 10.3673 13.2959C10.2783 13.3176 10.1881 13.3402 10.0976 13.3616C9.78993 13.4344 9.48185 13.5058 9.17476 13.5807C9.12371 13.5932 9.09491 13.5819 9.08324 13.5332C9.04407 13.3689 8.9868 13.2059 8.97229 13.0393C8.94513 12.7285 8.93553 12.4154 8.93247 12.1032C8.92669 11.5164 8.93084 10.9294 8.93084 10.3425C8.93084 10.3183 8.93084 10.2941 8.93084 10.258C8.73731 10.3034 8.55567 10.346 8.36629 10.3905C8.36291 10.3605 8.35844 10.3392 8.35844 10.3179C8.35789 10.0704 8.35953 9.82298 8.35691 9.57557C8.35636 9.52334 8.37676 9.50484 8.424 9.49439C8.57542 9.46091 8.72553 9.42204 8.87705 9.38905C8.92004 9.37969 8.93225 9.3611 8.93203 9.31875C8.9304 9.04269 8.93204 8.7666 8.9304 8.49054C8.93007 8.44434 8.94196 8.4233 8.99105 8.41202C9.34691 8.33016 9.702 8.24449 10.0573 8.16027C10.0731 8.15653 10.0894 8.1551 10.1196 8.15038C10.1196 8.46372 10.1196 8.77404 10.1196 9.09453C10.4039 9.02745 10.6727 8.96401 10.9467 8.89934C10.9486 8.92618 10.9509 8.94403 10.9509 8.96186C10.9511 9.2134 10.9497 9.46496 10.9523 9.71647C10.9527 9.76522 10.9357 9.78426 10.8904 9.79458ZM14.5327 10.3449C14.533 10.3907 14.5164 10.4099 14.4735 10.4199C13.7565 10.5874 13.0399 10.7567 12.3225 10.9229C12.2657 10.9361 12.247 10.9569 12.2504 11.0157C12.2618 11.2175 12.264 11.4204 12.3252 11.6157C12.3732 11.7687 12.4504 11.9001 12.6229 11.934C12.9662 12.0017 13.3004 11.7685 13.3597 11.4214C13.3739 11.3392 13.3787 11.2552 13.3845 11.1718C13.3867 11.1393 13.393 11.1208 13.4295 11.1122C13.7631 11.0336 14.0962 10.9527 14.4295 10.8728C14.4369 10.871 14.4452 10.8725 14.4748 10.8725C14.4631 11.0313 14.4626 11.1851 14.4387 11.3352C14.3312 12.0128 13.9161 12.438 13.3001 12.6874C12.9727 12.82 12.6323 12.9021 12.2753 12.9009C11.7605 12.8991 11.4077 12.6554 11.2248 12.1725C11.1372 11.9413 11.0903 11.7002 11.0812 11.4549C11.0709 11.1713 11.0667 10.8865 11.082 10.6034C11.1061 10.1558 11.19 9.71959 11.4109 9.32111C11.6672 8.85871 12.0627 8.57078 12.5608 8.41514C12.8155 8.33559 13.0749 8.2877 13.3437 8.29069C13.8826 8.2967 14.2696 8.57878 14.435 9.09233C14.4987 9.29018 14.5304 9.49342 14.5325 9.7007C14.5348 9.91538 14.5309 10.1302 14.5327 10.3449ZM17.2714 8.42508C17.0825 8.43631 16.9008 8.47789 16.7257 8.55204C16.3817 8.69769 16.2013 8.96608 16.1552 9.32567C16.1324 9.50317 16.1323 9.68433 16.1318 9.86389C16.1305 10.5263 16.1326 11.1887 16.1359 11.8511C16.1362 11.9168 16.1196 11.9457 16.05 11.9609C15.6956 12.0387 15.3425 12.1234 14.9889 12.2054C14.9811 12.2073 14.9732 12.208 14.9542 12.211C14.952 12.1812 14.9487 12.1574 14.9487 12.1336C14.9476 10.7659 14.9471 9.39811 14.9452 8.03034C14.9451 7.97899 14.9588 7.95544 15.0124 7.94312C15.3444 7.86684 15.6754 7.78632 16.0068 7.70768C16.0238 7.70363 16.0419 7.70379 16.0643 7.70151C16.0643 7.87385 16.0643 8.04092 16.0643 8.20798C16.0673 8.20896 16.0705 8.20994 16.0736 8.21092C16.0826 8.19404 16.0917 8.17718 16.1006 8.16025C16.2674 7.844 16.4863 7.57738 16.8175 7.42154C16.9589 7.35495 17.1068 7.31085 17.267 7.32166C17.3138 7.32481 17.3308 7.34055 17.3305 7.38818C17.3291 7.71326 17.329 8.03834 17.3306 8.36341C17.3308 8.40873 17.3158 8.42244 17.2714 8.42508ZM20.522 10.9018C20.3333 10.9464 20.1443 10.9891 19.9567 11.0372C19.907 11.0499 19.8864 11.0357 19.8704 10.992C19.8337 10.8927 19.7943 10.7944 19.7423 10.6779C19.7415 10.6869 19.7437 10.6975 19.7397 10.7045C19.5172 11.1022 19.1687 11.3287 18.7365 11.4395C18.5179 11.4955 18.2969 11.5149 18.0768 11.4505C17.7442 11.3532 17.5425 11.1225 17.4605 10.7954C17.3462 10.3392 17.3831 9.89771 17.6554 9.49833C17.8115 9.26936 18.0356 9.11592 18.2796 8.99583C18.5231 8.87604 18.7764 8.77619 19.0204 8.65723C19.1757 8.58149 19.3267 8.49418 19.4705 8.39851C19.594 8.31638 19.6468 8.18711 19.6435 8.03816C19.6419 7.97103 19.6431 7.90259 19.6305 7.83722C19.6041 7.70189 19.516 7.6304 19.3787 7.62081C19.0544 7.59813 18.7769 7.78468 18.7123 8.07852C18.6922 8.16915 18.695 8.2651 18.6907 8.35878C18.6889 8.39679 18.679 8.41669 18.638 8.42621C18.3023 8.50427 17.9672 8.58491 17.6317 8.66419C17.6186 8.66729 17.604 8.66458 17.5783 8.66458C17.5836 8.56307 17.5857 8.46362 17.5947 8.36483C17.6291 7.99198 17.7619 7.66377 18.0391 7.40277C18.1786 7.27139 18.3351 7.16369 18.5086 7.08313C18.9485 6.87874 19.4062 6.74703 19.897 6.75757C20.3741 6.76783 20.6998 7.04496 20.7772 7.51631C20.7989 7.64869 20.81 7.78424 20.8108 7.91842C20.8151 8.6198 20.8118 9.32121 20.8175 10.0226C20.819 10.2265 20.8407 10.4305 20.9015 10.6273C20.9186 10.6831 20.9447 10.7361 20.9691 10.7964C20.8187 10.8319 20.6703 10.8668 20.522 10.9018ZM24.3351 9.6973C24.0792 10.0248 23.7346 10.2209 23.3456 10.3464C23.096 10.4268 22.84 10.4799 22.5775 10.4889C22.2883 10.4989 22.0143 10.4482 21.7886 10.2487C21.6009 10.0827 21.5029 9.86378 21.4363 9.62859C21.359 9.35596 21.3253 9.07587 21.3148 8.79417C21.3053 8.53717 21.3001 8.27884 21.3147 8.02235C21.343 7.5294 21.4579 7.06112 21.7704 6.66165C21.9689 6.40781 22.2231 6.2255 22.5178 6.10083C22.9094 5.93509 23.3181 5.84104 23.7452 5.85228C24.0844 5.86121 24.3721 5.97856 24.5546 6.286C24.6361 6.42346 24.6829 6.57391 24.7018 6.73081C24.7187 6.87244 24.7208 7.01585 24.7299 7.15845C24.7321 7.19276 24.725 7.21487 24.6852 7.22421C24.3337 7.30653 23.9825 7.39082 23.6313 7.47417C23.6219 7.47639 23.6115 7.47444 23.596 7.47444C23.5916 7.36851 23.5903 7.26467 23.5819 7.1614C23.5763 7.09264 23.5669 7.02296 23.5484 6.95672C23.4922 6.75576 23.3629 6.68233 23.1579 6.72029C22.8266 6.78168 22.6552 7.00234 22.5857 7.30963C22.5445 7.49171 22.5179 7.68024 22.5128 7.86664C22.504 8.1872 22.5125 8.50851 22.5237 8.82916C22.5279 8.94828 22.5505 9.069 22.5814 9.18449C22.6587 9.47284 22.8323 9.57066 23.1219 9.5008C23.3782 9.43899 23.5331 9.26404 23.5683 8.9804C23.5858 8.83892 23.5872 8.69535 23.5937 8.55264C23.5954 8.51849 23.6001 8.49652 23.64 8.48728C23.9899 8.40639 24.3393 8.32339 24.6888 8.24111C24.6985 8.23882 24.7084 8.23754 24.7189 8.2357C24.7229 8.24223 24.7284 8.24699 24.7286 8.25197C24.7521 8.77583 24.6681 9.2713 24.3351 9.6973Z" fill="white"/>
</svg>
