<svg width="69" height="24" viewBox="0 0 69 24" fill="none" xmlns="http://www.w3.org/2000/svg">
<path d="M26.3172 5.00344L14.7289 0.331055L3.14062 5.00344V7.71979H26.3172V5.00344Z" fill="white"/>
<path d="M9.09428 9.51199C9.43806 9.51199 9.71673 9.25673 9.71673 8.94155C9.71673 8.62621 9.43806 8.37109 9.09428 8.37109H5.41919C5.07541 8.37109 4.79688 8.62621 4.79688 8.94155C4.79688 9.25673 5.07541 9.51199 5.41919 9.51199H5.62667V17.6615H5.41919C5.07541 17.6615 4.79688 17.9168 4.79688 18.232C4.79688 18.5471 5.07541 18.8027 5.41919 18.8027H9.09428C9.43806 18.8027 9.71673 18.5471 9.71673 18.232C9.71673 17.9168 9.43806 17.6615 9.09428 17.6615H8.88693V9.51199H9.09428Z" fill="white"/>
<path d="M16.5629 9.51199C16.9068 9.51199 17.1853 9.25673 17.1853 8.94155C17.1853 8.62621 16.9068 8.37109 16.5629 8.37109H12.8879C12.5442 8.37109 12.2656 8.62621 12.2656 8.94155C12.2656 9.25673 12.5442 9.51199 12.8879 9.51199H13.0954V17.6615H12.8879C12.5442 17.6615 12.2656 17.9168 12.2656 18.232C12.2656 18.5471 12.5442 18.8027 12.8879 18.8027H16.5629C16.9068 18.8027 17.1853 18.5471 17.1853 18.232C17.1853 17.9168 16.9068 17.6615 16.5629 17.6615H16.3554V9.51199H16.5629Z" fill="white"/>
<path d="M24.1492 9.51199C24.4927 9.51199 24.7715 9.25673 24.7715 8.94155C24.7715 8.62621 24.4927 8.37109 24.1492 8.37109H20.4741C20.1302 8.37109 19.8516 8.62621 19.8516 8.94155C19.8516 9.25673 20.1302 9.51199 20.4741 9.51199H20.6815V17.6615H20.4741C20.1302 17.6615 19.8516 17.9168 19.8516 18.232C19.8516 18.5471 20.1302 18.8027 20.4741 18.8027H24.1492C24.4927 18.8027 24.7715 18.5471 24.7715 18.232C24.7715 17.9168 24.4927 17.6615 24.1492 17.6615H23.9416V9.51199H24.1492Z" fill="white"/>
<path d="M3.73328 20.8676H25.7244C26.0505 20.8676 26.3172 20.6231 26.3172 20.3245V19.9984C26.3172 19.6995 26.0505 19.4551 25.7244 19.4551H3.73328C3.40729 19.4551 3.14062 19.6995 3.14062 19.9984V20.3245C3.14062 20.6231 3.40729 20.8676 3.73328 20.8676Z" fill="white"/>
<path d="M27.2599 21.5195H2.18654C1.86042 21.5195 1.59375 21.7642 1.59375 22.0627V22.5517C1.59375 22.8507 1.86042 23.0953 2.18654 23.0953H27.2599C27.5859 23.0953 27.8526 22.8507 27.8526 22.5517V22.0627C27.8526 21.7642 27.5859 21.5195 27.2599 21.5195Z" fill="white"/>
<path d="M37.6347 8.48549C37.4153 8.21921 37.1012 8.03432 36.698 7.92577C37.0121 7.78445 37.2492 7.60007 37.4035 7.36612C37.5575 7.13247 37.6347 6.88253 37.6347 6.62173C37.6347 6.33938 37.5516 6.07309 37.3738 5.81221C37.196 5.55162 36.953 5.36154 36.6447 5.23644C36.3364 5.11146 35.9216 5.05176 35.4118 5.05176H32.8984V11.1965H35.4533C35.88 11.1965 36.2357 11.1639 36.5321 11.0932C36.8285 11.0225 37.0715 10.9249 37.2672 10.7892C37.4626 10.6585 37.6287 10.4685 37.7591 10.2187C37.8954 9.96878 37.9606 9.70225 37.9606 9.41438C37.9606 9.05565 37.854 8.74623 37.6347 8.48549ZM33.7816 5.77988H35.1273C35.6074 5.77988 35.9511 5.8071 36.1468 5.8666C36.3423 5.9263 36.4965 6.02966 36.6032 6.18726C36.7098 6.33938 36.7633 6.51858 36.7633 6.72508C36.7633 6.94238 36.704 7.12166 36.5913 7.26298C36.4786 7.40422 36.3069 7.50765 36.0816 7.56722C35.9097 7.61598 35.6251 7.63796 35.234 7.63796H33.7816V5.77988ZM36.9056 9.93585C36.8167 10.088 36.704 10.2023 36.5677 10.2784C36.4313 10.36 36.2594 10.4143 36.0579 10.4467C35.9393 10.4631 35.7378 10.4739 35.4533 10.4739H33.7816V8.36024H35.3347C35.7615 8.36024 36.0875 8.39308 36.3128 8.4636C36.5379 8.53418 36.7159 8.65374 36.8463 8.82221C36.9707 8.99054 37.0359 9.19164 37.0359 9.41985C37.0359 9.61558 36.9946 9.78372 36.9056 9.93585Z" fill="white"/>
<path d="M43.0509 10.6535C43.0154 10.4689 42.9975 10.0233 42.9975 9.32252V8.31731C42.9975 7.98052 42.9858 7.75227 42.9561 7.62189C42.9086 7.41007 42.8257 7.24152 42.7012 7.1056C42.5827 6.96991 42.393 6.85575 42.1322 6.7688C41.8773 6.67653 41.5394 6.63281 41.1246 6.63281C40.7037 6.63281 40.3361 6.68727 40.022 6.79063C39.7019 6.89932 39.4588 7.04611 39.2929 7.24152C39.1269 7.43721 39.0025 7.69269 38.9313 8.00739L39.7375 8.11103C39.8263 7.79036 39.9626 7.57313 40.1465 7.44801C40.3303 7.32305 40.6207 7.26335 41.006 7.26335C41.4209 7.26335 41.7349 7.35035 41.9425 7.51883C42.0966 7.64912 42.1738 7.86095 42.1738 8.17059C42.1738 8.19775 42.1738 8.26293 42.1678 8.36629C41.8536 8.46943 41.3616 8.55665 40.6977 8.62681C40.3717 8.66505 40.1287 8.70309 39.9687 8.74104C39.7494 8.80076 39.5537 8.88236 39.3758 8.99091C39.198 9.0996 39.0559 9.24639 38.9491 9.42565C38.8424 9.60485 38.7891 9.80592 38.7891 10.0233C38.7891 10.3982 38.9372 10.7025 39.2217 10.9413C39.5121 11.1806 39.9211 11.3001 40.4548 11.3001C40.7749 11.3001 41.0772 11.2511 41.3616 11.1534C41.6462 11.0557 41.9425 10.8871 42.2448 10.6481C42.2685 10.8602 42.3219 11.0446 42.3989 11.1861H43.2585C43.1576 11.0177 43.0865 10.8382 43.0509 10.6535ZM42.1738 9.24099C42.1738 9.57232 42.1322 9.82752 42.0433 9.99632C41.9248 10.219 41.7469 10.3926 41.4981 10.5178C41.2491 10.6427 40.9646 10.7078 40.6503 10.7078C40.3303 10.7078 40.0872 10.6427 39.9211 10.507C39.7553 10.371 39.6722 10.2026 39.6722 10.0015C39.6722 9.87112 39.7078 9.75152 39.7848 9.64312C39.8619 9.53432 39.9687 9.45285 40.1108 9.39832C40.2533 9.33885 40.4904 9.28968 40.8283 9.24639C41.4269 9.1704 41.8773 9.07813 42.1738 8.96361V9.24099Z" fill="white"/>
<path d="M47.3103 7.80157C47.3756 7.95369 47.4051 8.18165 47.4051 8.49137V11.1972H48.2291V8.46429C48.2291 8.11654 48.2113 7.87201 48.1816 7.73098C48.1342 7.51353 48.0512 7.32885 47.9267 7.17127C47.8022 7.01367 47.6185 6.88892 47.3756 6.79096C47.1323 6.69322 46.8597 6.64453 46.5692 6.64453C45.8937 6.64453 45.3778 6.88892 45.0222 7.37784V6.74766H44.2812V11.1972H45.111V8.76853C45.111 8.19808 45.2356 7.8123 45.4906 7.6058C45.7454 7.40492 46.0476 7.30171 46.3975 7.30171C46.6168 7.30171 46.8064 7.34521 46.9724 7.43755C47.1323 7.52996 47.2451 7.64945 47.3103 7.80157Z" fill="white"/>
<path d="M53.5248 11.1965L51.4857 8.39849L53.3409 6.74698H52.274L50.324 8.55629V5.05176H49.5V11.1965H50.324V9.43092L50.9048 8.92017L52.5113 11.1965H53.5248Z" fill="white"/>
<path d="M32.4297 15.5643H34.6404V20.9865H35.5237V15.5643H37.7406V14.8418H32.4297V15.5643Z" fill="white"/>
<path d="M39.4501 16.5864C39.29 16.6898 39.1181 16.896 38.9285 17.2114V16.5378H38.1875V20.9871H39.0054V18.6564C39.0054 18.3358 39.0529 18.0424 39.1417 17.7763C39.2071 17.6023 39.3077 17.4611 39.4501 17.3636C39.5924 17.2655 39.7582 17.2166 39.9361 17.2166C40.1376 17.2166 40.3392 17.271 40.5407 17.3795L40.8253 16.6787C40.5348 16.5156 40.2563 16.4346 39.9776 16.4346C39.7879 16.4346 39.6101 16.4832 39.4501 16.5864Z" fill="white"/>
<path d="M45.2932 20.4442C45.2576 20.2596 45.2397 19.8142 45.2397 19.1132V18.108C45.2397 17.7712 45.228 17.5429 45.1983 17.4126C45.1508 17.2008 45.0678 17.0322 44.9435 16.8962C44.8249 16.7606 44.6352 16.6468 44.3744 16.5596C44.1195 16.4672 43.7818 16.4238 43.3668 16.4238C42.9459 16.4238 42.5783 16.478 42.2641 16.5813C41.9441 16.6901 41.7012 16.8368 41.5351 17.0322C41.3691 17.228 41.2445 17.4834 41.1736 17.7984L41.9797 17.9018C42.0685 17.581 42.2048 17.364 42.3887 17.2388C42.5725 17.1138 42.8629 17.0541 43.2482 17.0541C43.663 17.0541 43.9773 17.141 44.1847 17.3096C44.3388 17.4398 44.4158 17.6517 44.4158 17.9613C44.4158 17.9885 44.4158 18.0536 44.41 18.157C44.0958 18.2601 43.6038 18.347 42.9398 18.4177C42.6139 18.4557 42.3709 18.4938 42.2109 18.5317C41.9915 18.5914 41.7959 18.6732 41.6181 18.7816C41.4403 18.8904 41.2981 19.037 41.1914 19.2164C41.0846 19.3958 41.0312 19.5966 41.0312 19.8142C41.0312 20.1889 41.1795 20.4932 41.464 20.732C41.7544 20.9713 42.1634 21.0908 42.6969 21.0908C43.0171 21.0908 43.3194 21.0418 43.6038 20.9441C43.8884 20.8464 44.1847 20.6778 44.487 20.4388C44.5168 20.6453 44.5699 20.83 44.6412 20.9766H45.5007C45.3998 20.8084 45.3287 20.6289 45.2932 20.4442ZM44.4218 19.0262C44.4218 19.3574 44.3805 19.6129 44.2914 19.7813C44.1729 20.0041 43.9951 20.1782 43.7461 20.3028C43.497 20.4281 43.2124 20.4932 42.8985 20.4932C42.5783 20.4932 42.3353 20.4281 42.1695 20.2921C42.0034 20.1561 41.9204 19.988 41.9204 19.787C41.9204 19.6565 41.956 19.5369 42.0331 19.4282C42.1101 19.3194 42.2167 19.2382 42.3591 19.1837C42.5012 19.124 42.7383 19.075 43.0761 19.0317C43.6749 18.9556 44.1254 18.8632 44.4218 18.7493V19.0262Z" fill="white"/>
<path d="M50.1767 16.9612C50.0521 16.8036 49.8685 16.6787 49.6254 16.581C49.3823 16.4832 49.1096 16.4346 48.8193 16.4346C48.1435 16.4346 47.6278 16.6787 47.2722 17.1679V16.5378H46.5312V20.9924H47.361V18.564C47.361 17.9938 47.4856 17.6078 47.7405 17.4015C47.9954 17.2004 48.2976 17.0971 48.6473 17.0971C48.8667 17.0971 49.0564 17.1407 49.2223 17.233C49.3823 17.3254 49.495 17.445 49.5602 17.597C49.6254 17.7491 49.6551 17.9774 49.6551 18.287V20.9924H50.4789V18.2543C50.4789 17.9066 50.4611 17.6622 50.4315 17.521C50.384 17.3036 50.3011 17.1188 50.1767 16.9612Z" fill="white"/>
<path d="M54.696 18.6347C54.4648 18.5476 54.0559 18.4279 53.475 18.2868C53.0719 18.1891 52.829 18.1239 52.7459 18.0968C52.6037 18.0423 52.4969 17.9772 52.4318 17.8958C52.3667 17.8142 52.331 17.7271 52.331 17.6295C52.331 17.4774 52.414 17.3414 52.574 17.2275C52.74 17.1134 53.0069 17.0536 53.386 17.0536C53.7061 17.0536 53.9493 17.1134 54.1272 17.2438C54.3049 17.3742 54.4116 17.5532 54.4472 17.7816L55.2532 17.6784C55.1999 17.3907 55.1052 17.1622 54.9688 16.9883C54.8264 16.8199 54.6191 16.6842 54.3285 16.5808C54.0441 16.4775 53.7061 16.4287 53.3268 16.4287C53.0719 16.4287 52.8348 16.4615 52.6155 16.5211C52.3962 16.5863 52.2243 16.6571 52.0939 16.744C51.9221 16.8579 51.7917 16.9994 51.6908 17.1678C51.59 17.3362 51.5427 17.5154 51.5427 17.7164C51.5427 17.9336 51.602 18.1347 51.7205 18.314C51.839 18.4934 52.0168 18.6347 52.2479 18.7379C52.485 18.8411 52.9 18.9606 53.5047 19.1018C53.9551 19.2051 54.2338 19.2919 54.3465 19.357C54.5065 19.455 54.5894 19.5908 54.5894 19.7594C54.5894 19.9492 54.5004 20.1124 54.3167 20.2536C54.1329 20.3947 53.8544 20.4655 53.475 20.4655C53.0956 20.4655 52.8052 20.384 52.5978 20.2264C52.3903 20.0634 52.2658 19.8354 52.2184 19.5364L51.4062 19.656C51.4951 20.1286 51.7086 20.4871 52.0346 20.7315C52.3606 20.9708 52.8466 21.0903 53.475 21.0903C53.8544 21.0903 54.1982 21.0252 54.5004 20.9054C54.8027 20.786 55.0339 20.6123 55.194 20.3895C55.3481 20.1667 55.4312 19.9276 55.4312 19.6779C55.4312 19.417 55.3659 19.2051 55.2354 19.0312C55.1051 18.8575 54.9272 18.727 54.696 18.6347Z" fill="white"/>
<path d="M57.6037 15.5652C57.7046 15.4674 57.8823 15.4185 58.1313 15.4185C58.2854 15.4185 58.4455 15.4349 58.6173 15.4621L58.7417 14.8046C58.4572 14.7557 58.2024 14.7285 57.9712 14.7285C57.6097 14.7285 57.3311 14.7937 57.1296 14.9134C56.928 15.0381 56.7857 15.1958 56.7087 15.3913C56.6494 15.538 56.6197 15.7609 56.6197 16.0594V16.5322H55.8906V17.119H56.6138V20.982H57.4496V17.119H58.3979V16.527H57.4496V16.1138C57.4496 15.8478 57.503 15.6632 57.6037 15.5652Z" fill="white"/>
<path d="M63.2115 18.7488C63.2115 18.0152 63.004 17.4448 62.5951 17.0375C62.1861 16.6299 61.6584 16.4287 61.0066 16.4287C60.3367 16.4287 59.7913 16.6352 59.3706 17.0482C58.9497 17.461 58.7422 18.0423 58.7422 18.792C58.7422 19.52 58.9497 20.0798 59.3645 20.4818C59.7795 20.8839 60.3426 21.0847 61.0539 21.0847C61.6229 21.0847 62.0852 20.9598 62.4468 20.7099C62.8084 20.4602 63.0575 20.107 63.1938 19.6507L62.3461 19.5527C62.2216 19.8676 62.0498 20.1015 61.8185 20.2482C61.6051 20.3947 61.3502 20.4655 61.0479 20.4655C60.6449 20.4655 60.307 20.3352 60.0344 20.0744C59.7676 19.8138 59.6134 19.4386 59.5838 18.9499H63.2055C63.2115 18.8627 63.2115 18.792 63.2115 18.7488ZM59.6432 18.3304C59.6728 17.9444 59.8149 17.6347 60.07 17.4014C60.3307 17.1678 60.6448 17.0536 61.0242 17.0536C61.4392 17.0536 61.783 17.2003 62.0438 17.4882C62.2098 17.673 62.3163 17.9554 62.352 18.3304H59.6432Z" fill="white"/>
<path d="M65.4812 16.5864C65.3213 16.6898 65.1493 16.896 64.9596 17.2114V16.5378H64.2188V20.9871H65.0367V18.6564C65.0367 18.3358 65.0841 18.0424 65.1731 17.7763C65.2382 17.6023 65.3392 17.4611 65.4812 17.3636C65.6235 17.2655 65.7896 17.2166 65.9675 17.2166C66.1689 17.2166 66.3704 17.271 66.572 17.3795L66.8564 16.6787C66.566 16.5156 66.2874 16.4346 66.009 16.4346C65.819 16.4346 65.6413 16.4832 65.4812 16.5864Z" fill="white"/>
</svg>
