<svg width="99" height="24" viewBox="0 0 99 24" fill="none" xmlns="http://www.w3.org/2000/svg">
<path d="M54.0254 7.11737C54.6306 7.11737 55.1211 6.639 55.1211 6.04892C55.1211 5.45883 54.6306 4.98047 54.0254 4.98047C53.4202 4.98047 52.9297 5.45883 52.9297 6.04892C52.9297 6.639 53.4202 7.11737 54.0254 7.11737Z" fill="white"/>
<path d="M67.3848 7.11737C67.99 7.11737 68.4805 6.639 68.4805 6.04892C68.4805 5.45883 67.99 4.98047 67.3848 4.98047C66.7796 4.98047 66.2891 5.45883 66.2891 6.04892C66.2891 6.639 66.7796 7.11737 67.3848 7.11737Z" fill="white"/>
<path d="M39.75 4.98047H41.5564L45.1398 13.1816L48.6343 4.98047H50.4408V17.5709H48.5455V9.7163H48.4862L45.7321 16.3003H44.5475L41.6749 9.7163H41.6453V17.5709H39.75V4.98047Z" fill="white"/>
<path d="M54.9175 8.58984H53.1406V17.5417H54.9175V8.58984Z" fill="white"/>
<path d="M57.5469 4.98047H64.6247V6.77084H59.4423V10.496H64.6247V12.1709H59.4423V17.5709H57.5469V4.98047Z" fill="white"/>
<path d="M68.269 8.58984H66.4922V17.5417H68.269V8.58984Z" fill="white"/>
<path d="M70.7327 8.59012H72.5096V9.54307H72.5392C73.1314 8.82113 73.9014 8.47461 74.8491 8.47461C75.5895 8.47461 76.2707 8.73451 76.8629 9.25429C77.4553 9.77411 77.781 10.5537 77.8105 11.5933V17.542H76.0337V12.2286C76.0337 11.5933 75.856 11.1313 75.5303 10.7847C75.2045 10.4383 74.7899 10.2939 74.2568 10.2939C73.7533 10.2939 73.3092 10.4671 72.9835 10.7847C72.6576 11.1024 72.48 11.5933 72.48 12.2286V17.5709H70.7031L70.7327 8.59012Z" fill="white"/>
<path d="M81.9487 8.58984H80.1719V17.5417H81.9487V8.58984Z" fill="white"/>
<path d="M84.6228 5.00879H86.3995V8.58954H87.7027V9.97569H86.3995V15.2023C86.3995 15.6644 86.607 15.8665 87.0216 15.8665H87.7027V17.5703H86.7847C86.1628 17.5703 85.6297 17.3682 85.2447 16.9928C84.8301 16.6173 84.6228 16.0687 84.6228 15.3757V9.97569H83.7344V8.58954H84.6228V5.00879Z" fill="white"/>
<path d="M88.8828 8.58984H90.7781L92.8808 14.8561H92.9103L95.013 8.58984H96.9083L93.0881 19.4187C92.8511 20.0829 92.4957 20.5449 92.0811 20.8048C91.637 21.0647 91.1335 21.1802 90.6005 21.1802H90.0082V19.4765H90.5412C90.7781 19.4765 90.9854 19.4187 91.1927 19.2743C91.4 19.1299 91.5184 18.9568 91.6073 18.6968L92.0811 17.1952L88.8828 8.58984Z" fill="white"/>
<path d="M81.0645 7.11737C81.6696 7.11737 82.1602 6.639 82.1602 6.04892C82.1602 5.45883 81.6696 4.98047 81.0645 4.98047C80.4593 4.98047 79.9688 5.45883 79.9688 6.04892C79.9688 6.639 80.4593 7.11737 81.0645 7.11737Z" fill="white"/>
<path d="M5.27669 16.6462C5.94728 16.6462 6.49088 16.1162 6.49088 15.4624C6.49088 14.8084 5.94728 14.2783 5.27669 14.2783C4.60612 14.2783 4.0625 14.8084 4.0625 15.4624C4.0625 16.1162 4.60612 16.6462 5.27669 16.6462Z" fill="white"/>
<path d="M18.2223 12.6035C18.8112 12.6035 19.2885 12.1381 19.2885 11.564C19.2885 10.9897 18.8112 10.5244 18.2223 10.5244C17.6336 10.5244 17.1562 10.9897 17.1562 11.564C17.1562 12.1381 17.6336 12.6035 18.2223 12.6035Z" fill="white"/>
<path d="M20.5316 10.3509C21.1531 10.3509 21.6569 9.85957 21.6569 9.25357C21.6569 8.64753 21.1531 8.15625 20.5316 8.15625C19.9101 8.15625 19.4062 8.64753 19.4062 9.25357C19.4062 9.85957 19.9101 10.3509 20.5316 10.3509Z" fill="white"/>
<path d="M15.5595 14.9429C16.2138 14.9429 16.7441 14.4258 16.7441 13.7879C16.7441 13.1499 16.2138 12.6328 15.5595 12.6328C14.9053 12.6328 14.375 13.1499 14.375 13.7879C14.375 14.4258 14.9053 14.9429 15.5595 14.9429Z" fill="white"/>
<path d="M12.5386 16.9928C13.3237 16.9928 13.9602 16.3723 13.9602 15.6067C13.9602 14.8413 13.3237 14.2207 12.5386 14.2207C11.7536 14.2207 11.1172 14.8413 11.1172 15.6067C11.1172 16.3723 11.7536 16.9928 12.5386 16.9928Z" fill="white"/>
<path d="M8.77723 18.0612C9.6768 18.0612 10.406 17.3501 10.406 16.4729C10.406 15.5958 9.6768 14.8848 8.77723 14.8848C7.87767 14.8848 7.14844 15.5958 7.14844 16.4729C7.14844 17.3501 7.87767 18.0612 8.77723 18.0612Z" fill="white"/>
<path d="M23.6436 8.70552C24.3959 8.70552 25.0059 8.1108 25.0059 7.37717C25.0059 6.64355 24.3959 6.04883 23.6436 6.04883C22.8913 6.04883 22.2812 6.64355 22.2812 7.37717C22.2812 8.1108 22.8913 8.70552 23.6436 8.70552Z" fill="white"/>
<path d="M27.4027 7.86818C28.2204 7.86818 28.8833 7.22174 28.8833 6.42432C28.8833 5.62691 28.2204 4.98047 27.4027 4.98047C26.5848 4.98047 25.9219 5.62691 25.9219 6.42432C25.9219 7.22174 26.5848 7.86818 27.4027 7.86818Z" fill="white"/>
<path d="M30.7454 8.64721C31.416 8.64721 31.9596 8.11713 31.9596 7.46326C31.9596 6.80937 31.416 6.2793 30.7454 6.2793C30.0748 6.2793 29.5312 6.80937 29.5312 7.46326C29.5312 8.11713 30.0748 8.64721 30.7454 8.64721Z" fill="white"/>
<path d="M16.0877 9.62941C16.3822 9.62941 16.6209 9.39669 16.6209 9.10963C16.6209 8.82255 16.3822 8.58984 16.0877 8.58984C15.7933 8.58984 15.5547 8.82255 15.5547 9.10963C15.5547 9.39669 15.7933 9.62941 16.0877 9.62941Z" fill="white"/>
<path d="M14.7564 8.58965C15.0835 8.58965 15.3487 8.33108 15.3487 8.01211C15.3487 7.69315 15.0835 7.43457 14.7564 7.43457C14.4293 7.43457 14.1641 7.69315 14.1641 8.01211C14.1641 8.33108 14.4293 8.58965 14.7564 8.58965Z" fill="white"/>
<path d="M13.2157 7.63666C13.5591 7.63666 13.8376 7.36515 13.8376 7.03024C13.8376 6.69532 13.5591 6.42383 13.2157 6.42383C12.8722 6.42383 12.5938 6.69532 12.5938 7.03024C12.5938 7.36515 12.8722 7.63666 13.2157 7.63666Z" fill="white"/>
<path d="M11.411 6.97261C11.7545 6.97261 12.033 6.70111 12.033 6.36619C12.033 6.03128 11.7545 5.75977 11.411 5.75977C11.0675 5.75977 10.7891 6.03128 10.7891 6.36619C10.7891 6.70111 11.0675 6.97261 11.411 6.97261Z" fill="white"/>
<path d="M9.42786 6.88623C9.83675 6.88623 10.1682 6.56301 10.1682 6.16431C10.1682 5.76558 9.83675 5.44238 9.42786 5.44238C9.01896 5.44238 8.6875 5.76558 8.6875 6.16431C8.6875 6.56301 9.01896 6.88623 9.42786 6.88623Z" fill="white"/>
<path d="M7.26671 7.40617C7.72467 7.40617 8.09592 7.04417 8.09592 6.59762C8.09592 6.15106 7.72467 5.78906 7.26671 5.78906C6.80876 5.78906 6.4375 6.15106 6.4375 6.59762C6.4375 7.04417 6.80876 7.40617 7.26671 7.40617Z" fill="white"/>
<path d="M5.19149 8.90756C5.69852 8.90756 6.10954 8.50676 6.10954 8.01237C6.10954 7.51797 5.69852 7.11719 5.19149 7.11719C4.68447 7.11719 4.27344 7.51797 4.27344 8.01237C4.27344 8.50676 4.68447 8.90756 5.19149 8.90756Z" fill="white"/>
<path d="M3.71164 10.9859C4.25139 10.9859 4.68893 10.5593 4.68893 10.033C4.68893 9.50672 4.25139 9.08008 3.71164 9.08008C3.17191 9.08008 2.73438 9.50672 2.73438 10.033C2.73438 10.5593 3.17191 10.9859 3.71164 10.9859Z" fill="white"/>
<path d="M3.58956 13.9609C4.17836 13.9609 4.65567 13.4955 4.65567 12.9213C4.65567 12.3472 4.17836 11.8818 3.58956 11.8818C3.00075 11.8818 2.52344 12.3472 2.52344 12.9213C2.52344 13.4955 3.00075 13.9609 3.58956 13.9609Z" fill="white"/>
<path d="M32.4411 11.2462C33.0299 11.2462 33.5073 10.7806 33.5073 10.2066C33.5073 9.63243 33.0299 9.16699 32.4411 9.16699C31.8523 9.16699 31.375 9.63243 31.375 10.2066C31.375 10.7806 31.8523 11.2462 32.4411 11.2462Z" fill="white"/>
<path d="M32.379 13.9602C32.8861 13.9602 33.2971 13.5595 33.2971 13.0651C33.2971 12.5706 32.8861 12.1699 32.379 12.1699C31.8721 12.1699 31.4609 12.5706 31.4609 13.0651C31.4609 13.5595 31.8721 13.9602 32.379 13.9602Z" fill="white"/>
<path d="M30.837 15.8954C31.2949 15.8954 31.6661 15.5334 31.6661 15.0867C31.6661 14.6403 31.2949 14.2783 30.837 14.2783C30.379 14.2783 30.0078 14.6403 30.0078 15.0867C30.0078 15.5334 30.379 15.8954 30.837 15.8954Z" fill="white"/>
<path d="M28.8839 17.1952C29.3419 17.1952 29.7131 16.8332 29.7131 16.3866C29.7131 15.94 29.3419 15.5781 28.8839 15.5781C28.4259 15.5781 28.0547 15.94 28.0547 16.3866C28.0547 16.8332 28.4259 17.1952 28.8839 17.1952Z" fill="white"/>
<path d="M26.6935 17.5415C27.1023 17.5415 27.4338 17.2183 27.4338 16.8196C27.4338 16.4208 27.1023 16.0977 26.6935 16.0977C26.2846 16.0977 25.9531 16.4208 25.9531 16.8196C25.9531 17.2183 26.2846 17.5415 26.6935 17.5415Z" fill="white"/>
<path d="M24.6219 17.2812C24.9654 17.2812 25.2438 17.0096 25.2438 16.6747C25.2438 16.3398 24.9654 16.0684 24.6219 16.0684C24.2784 16.0684 24 16.3398 24 16.6747C24 17.0096 24.2784 17.2812 24.6219 17.2812Z" fill="white"/>
<path d="M22.9047 16.5311C23.2318 16.5311 23.4971 16.2725 23.4971 15.9537C23.4971 15.6346 23.2318 15.376 22.9047 15.376C22.5777 15.376 22.3125 15.6346 22.3125 15.9537C22.3125 16.2725 22.5777 16.5311 22.9047 16.5311Z" fill="white"/>
<path d="M21.3299 15.6069C21.6243 15.6069 21.8629 15.3741 21.8629 15.087C21.8629 14.8 21.6243 14.5674 21.3299 14.5674C21.0355 14.5674 20.7969 14.8 20.7969 15.087C20.7969 15.3741 21.0355 15.6069 21.3299 15.6069Z" fill="white"/>
</svg>
