<svg width="117" height="24" viewBox="0 0 117 24" fill="none" xmlns="http://www.w3.org/2000/svg">
<path d="M22.6623 7H19.1876C18.9089 7 18.6087 7.06588 18.3084 7.19849C18.0081 7.33095 17.7721 7.48562 17.5791 7.68425C17.1931 8.1481 17.0215 8.81058 17 9.69388V21H19.445V17.1799H22.7267C23.3486 17.1799 23.8633 16.9369 24.3138 16.4731C24.764 16.0313 24.9786 15.5014 25 14.883V9.60538C24.9786 7.88331 24.2064 7.02191 22.6623 7ZM22.4048 14.3752C22.2762 14.5299 22.1261 14.596 21.9544 14.596H20.217C19.7025 14.596 19.4666 14.3311 19.445 13.8452V10.3342C19.445 9.8706 19.681 9.60538 20.1314 9.58333H22.0188C22.3834 9.60538 22.555 9.80444 22.5764 10.2017L22.5978 13.9557C22.5978 14.1322 22.5335 14.2646 22.4048 14.3752Z" fill="white"/>
<path d="M32.5484 7H27V9.53767H31.9248C32.3764 9.51614 32.613 9.7114 32.5914 10.0801H32.613V10.3188H29.3654C27.7957 10.3619 27.0216 11.1428 27 12.7049V14.7437C27.0216 16.2405 27.8386 16.9781 29.4731 17H32.8065C33.4517 17 33.9894 16.7829 34.3978 16.3274C34.7849 15.8716 34.9786 15.3293 35 14.657V9.36421C34.9786 7.80228 34.1613 7.02152 32.5484 7ZM32.613 13.9629C32.5914 14.2883 32.3764 14.4618 31.9462 14.4618H30.0752C29.8818 14.4618 29.7313 14.4186 29.6236 14.3101C29.4947 14.2232 29.4301 14.1149 29.4301 13.9629L29.4516 13.312C29.4516 13.0518 29.4947 12.8565 29.5807 12.7699C29.6882 12.7049 29.8603 12.6615 30.0968 12.6615H31.9462C32.3979 12.6615 32.613 12.8565 32.613 13.2469V13.9629Z" fill="white"/>
<path d="M42.5765 13.9557C42.5765 14.1101 42.512 14.2646 42.3619 14.3752C42.2116 14.5299 42.0403 14.596 41.8256 14.596H40.1097C39.681 14.596 39.4665 14.3311 39.4665 13.779V7H37.0214V14.5741C37.0214 14.9936 37.0857 15.3469 37.193 15.6117C37.2786 15.9211 37.4717 16.2081 37.7077 16.4731C37.9651 16.7159 38.2224 16.9146 38.4798 17.0031C38.7157 17.1136 39.0374 17.1576 39.445 17.1576H42.555V17.776C42.555 17.9305 42.4906 18.0851 42.3619 18.1956C42.2333 18.328 42.0616 18.3942 41.8685 18.4161H37V21H42.7051C43.413 20.9778 43.9704 20.7349 44.378 20.227C44.7855 19.7193 44.9785 19.0567 45 18.2176V7H42.5765V13.9557Z" fill="white"/>
<path d="M47.0201 9.25561V11.1428C47.0201 11.707 47.2419 12.2059 47.6859 12.5964C48.1297 13.0304 48.6339 13.2469 49.2391 13.2688H51.2564C51.3976 13.2688 51.4986 13.3555 51.5993 13.5508C51.6398 13.6375 51.6599 13.7027 51.6599 13.7675V13.9845C51.6398 14.2883 51.4581 14.4402 51.0749 14.4618H47V17H51.781C52.1642 17 52.4668 16.9564 52.6887 16.8695C52.9107 16.7829 53.1325 16.6092 53.3342 16.3489C53.7579 15.8282 53.9798 15.3078 54 14.7874V12.9433C53.9798 12.3361 53.778 11.8155 53.3948 11.3814C53.0115 10.9478 52.5676 10.7307 52.0229 10.7092H50.0058C49.5215 10.7092 49.2796 10.5574 49.2796 10.2319V9.99318C49.2796 9.68974 49.5215 9.53767 49.9855 9.53767H54V7H49.2593C47.7867 7.04305 47.0403 7.78048 47.0201 9.25561Z" fill="white"/>
<path d="M61.555 7H56.0214V9.53767H60.933C61.3834 9.51614 61.5979 9.7114 61.5979 10.0801V10.3188H58.3593C56.7936 10.3619 56 11.1428 56 12.7049V14.7437C56.0214 16.2405 56.8365 16.9781 58.4664 17H61.8124C62.4557 17 62.9921 16.7829 63.3995 16.3274C63.7856 15.8716 63.9786 15.3293 64 14.657V9.36421C63.9786 7.80228 63.1635 7.02152 61.555 7ZM61.5764 13.9629C61.555 14.2883 61.3404 14.4618 60.9115 14.4618H59.0456C58.874 14.4618 58.7239 14.4186 58.6166 14.3101C58.4879 14.2232 58.4235 14.1149 58.4235 13.9629H58.445V13.312C58.445 13.0518 58.4879 12.8565 58.5736 12.7699C58.6595 12.7049 58.831 12.6615 59.067 12.6615H60.9115C61.3404 12.6615 61.5764 12.8565 61.5764 13.2469V13.9629Z" fill="white"/>
<path d="M66.7385 4.61594C66.2666 5.00606 66.041 5.54023 66.0204 6.17669L66 17H68.3385V9.93501H69.9796V7.53246H68.3385V7.01889C68.3589 6.56699 68.6052 6.34111 69.0975 6.3208H70V4H68.5231C67.7846 4.02046 67.1898 4.22595 66.7385 4.61594Z" fill="white"/>
<path d="M80 11.4251V9.42921C79.9786 7.82422 79.2044 7.02152 77.6775 7H74.387C72.8172 7.04305 72.0214 7.80228 72 9.34255L72.0214 14.3968C72.0214 14.8958 72.0645 15.2863 72.1719 15.5681C72.2581 15.8501 72.4517 16.1322 72.7096 16.3927C72.9463 16.6092 73.2043 16.7829 73.5053 16.8695C73.785 16.9564 74.1506 17 74.6452 17H79.9786V14.4618H74.9678C74.8173 14.4618 74.7312 14.3968 74.6452 14.2448C74.5376 14.1362 74.4946 13.9629 74.4946 13.7675V13.6157L80 11.4251ZM74.4302 11.2081V10.1887C74.4302 9.99318 74.516 9.84153 74.6881 9.73293C74.8386 9.6028 75.0107 9.53767 75.2259 9.53767H76.9249C77.0968 9.53767 77.2474 9.55933 77.3549 9.64627C77.4624 9.73293 77.5054 9.84153 77.5054 9.97165V10.0366L74.4302 11.2081Z" fill="white"/>
<path d="M84.2431 16.3318C83.9605 16.2673 83.6545 16.1378 83.3719 15.9436C83.1128 15.7283 82.9244 15.448 82.8068 15.1461C82.6889 14.8233 82.6417 14.4997 82.6417 14.1766V9.4782C82.6417 8.78859 82.8537 8.27146 83.2776 7.99109C83.678 7.71099 84.2431 7.58171 84.9496 7.58171H88.9529V7H84.8555C84.4079 7 84.0312 7.02152 83.7017 7.10748C83.3483 7.194 83.0185 7.38771 82.6889 7.68961C82.4065 7.9697 82.218 8.24965 82.1239 8.55155C82.0296 8.85316 81.9824 9.17644 82.006 9.56457V14.2627C82.006 14.7154 82.0767 15.103 82.2181 15.4694C82.3593 15.8357 82.5948 16.1594 82.9716 16.4611C83.3247 16.7196 83.678 16.8703 84.0312 16.9136C84.3609 16.9567 84.7377 17 85.138 17H89V16.4179H85.1853C84.8555 16.4179 84.5494 16.3966 84.2431 16.3318Z" fill="white"/>
<path d="M98.9569 14.3059V9.75885C98.9569 9.00425 98.7418 8.33631 98.2904 7.75432C98.1397 7.56046 97.9892 7.40952 97.8171 7.30189C97.6452 7.194 97.4731 7.12928 97.2795 7.08651C96.914 7.0218 96.4839 7 96.0322 7H91V7.58213H96.3118C96.6344 7.58213 96.9356 7.62517 97.2149 7.69002C97.4947 7.77584 97.731 7.96998 97.9248 8.22841C98.2474 8.65959 98.3979 9.13353 98.3979 9.67247V10.3406H93.5377C91.8817 10.3839 91.0216 11.2673 91 12.97V14.4786C91 15.2543 91.2366 15.8794 91.731 16.3319C92.2043 16.7628 92.8279 17 93.5806 17H96.5055C97.2795 17 97.9031 16.7414 98.4194 16.2026C98.6773 15.9227 98.8279 15.6208 98.9139 15.2975C98.9784 15.0173 99 14.694 99 14.3059H98.9569ZM98.3979 14.4571C98.3979 15.7501 97.7743 16.3965 96.5269 16.4184H93.5591C93.0644 16.4184 92.5914 16.2457 92.1613 15.9007C91.9247 15.707 91.7741 15.4912 91.7096 15.2328C91.6451 14.9958 91.6236 14.7157 91.6236 14.4354V12.9483C91.6236 12.3234 91.7956 11.8493 92.1397 11.483C92.4623 11.1381 92.9354 10.9655 93.5161 10.9441H98.4194L98.3979 14.4571Z" fill="white"/>
<path d="M102 9.82314V17H102.523V9.82314C102.503 8.35755 103.103 7.60337 104.323 7.58171H105V7H104.419C102.774 7 101.981 7.94818 102 9.82314Z" fill="white"/>
<path d="M114.979 4H114.405V7.17551H109.876C107.983 7.15409 107.027 8.10691 107.005 9.99113V14.1828C106.984 14.585 107.027 14.945 107.112 15.2624C107.175 15.5801 107.346 15.8974 107.601 16.2149C107.941 16.5752 108.302 16.8078 108.664 16.8926C109.025 16.956 109.429 16.9986 109.876 16.9986H112.023C113.958 17.0408 114.958 16.1304 115 14.2674L114.979 4ZM114.426 14.2037C114.405 14.9872 114.171 15.5591 113.703 15.8764C113.235 16.2149 112.619 16.3844 111.875 16.3844H109.876C109.557 16.3844 109.259 16.3422 108.983 16.2789C108.706 16.2149 108.472 16.1304 108.26 16.0034C107.813 15.7279 107.601 15.2202 107.601 14.4793V9.99113C107.579 9.65229 107.622 9.35587 107.707 9.10188C107.771 8.84788 107.92 8.6149 108.154 8.36077C108.409 8.0859 108.685 7.91621 108.961 7.85292C109.238 7.78921 109.536 7.74693 109.855 7.74693H114.426V14.2037Z" fill="white"/>
<path d="M3.3752 6.39199C3.71893 4.86291 5.22299 3.70591 7.00643 3.70591C8.78987 3.70591 10.2727 4.86291 10.6378 6.39199C11.1966 6.49015 11.6477 6.68633 11.9916 7C12.013 6.70579 11.9916 6.41182 11.9487 6.15677C11.7122 3.8234 9.58505 2 6.98502 2C4.29896 2 2.1289 3.94102 2.02141 6.35308C2 6.56872 2 6.78449 2 7C2.2364 6.82352 2.49421 6.68633 2.79491 6.56872C2.98838 6.49015 3.18172 6.4314 3.3752 6.39199Z" fill="white"/>
<path d="M9.76634 7H4.09027C3.82384 7 3.53699 7.06485 3.25002 7.19496C2.96312 7.32507 2.73766 7.47713 2.55334 7.67223C2.20495 8.12784 2.02056 8.77854 2 9.64629V14.3534C2.02056 15.2212 2.18454 15.8717 2.55334 16.3275C2.73766 16.5227 2.96312 16.6745 3.25002 16.8045C3.53699 16.935 3.82384 17 4.09027 17H9.76634C11.2418 16.9781 11.9795 16.1323 12 14.4404V9.55936C11.9795 7.86775 11.2418 7.02152 9.76634 7Z" fill="white"/>
</svg>
